<svg width="130" height="116" viewBox="0 0 130 116" fill="none" xmlns="http://www.w3.org/2000/svg">
<circle cx="65.802" cy="54.5679" r="46.5432" fill="#FFDDA0"/>
<path d="M117.558 35.5348H84.2928V12.81C84.2928 5.74589 78.7113 0 71.8513 0H12.4398C5.57983 0 0 5.74766 0 12.81V76.0838C0 77.5172 0.757055 78.8389 1.97694 79.5317C2.55334 79.8577 3.18823 80.0207 3.82484 80.0207C4.53372 80.0207 5.24088 79.8187 5.86373 79.4148L20.3355 70.035H45.7072V92.7598C45.7072 99.8239 51.2887 105.572 58.1487 105.572L109.704 105.582L124.141 114.95C124.763 115.354 125.471 115.556 126.18 115.556C126.815 115.556 127.452 115.393 128.026 115.065C129.243 114.374 130 113.054 130 111.619V48.3448C130 41.2825 124.418 35.5348 117.558 35.5348ZM45.7054 48.3448V64.9145H20.3338C19.3823 64.9145 18.4515 65.1909 17.6462 65.7136L4.97075 73.94V12.81C4.97075 8.56833 8.32071 5.11868 12.4398 5.11868H71.8513C75.9704 5.11868 79.3221 8.56833 79.3221 12.81V35.5348H58.1469C51.287 35.5348 45.7054 41.2825 45.7054 48.3448ZM79.3221 40.6535V57.2232C79.3221 61.4649 75.9704 64.9145 71.8513 64.9145H50.6762V48.3448C50.6762 44.1032 54.0279 40.6535 58.1469 40.6535H79.3221ZM125.029 109.478L112.355 101.254C111.55 100.729 110.619 100.453 109.666 100.453H58.1469C54.0279 100.453 50.6762 97.0015 50.6762 92.7598V70.0332H71.8513C78.7113 70.0332 84.2928 64.2855 84.2928 57.2232V40.6535H117.558C121.678 40.6535 125.029 44.1032 125.029 48.3448V109.478Z" fill="white"/>
</svg>
