<svg width="28" height="28" viewBox="0 0 28 28" fill="none" xmlns="http://www.w3.org/2000/svg">
<path d="M17.6364 20.2103C17.7818 20.9282 17.8182 21.359 17.6364 21.9333C17.6 22.041 17.5636 22.1487 17.5273 22.1846C17.4909 22.1487 17.4909 22.0769 17.4545 21.9692C17.3091 21.1795 17.3091 20.9282 17.5273 19.8872C17.6 20.0308 17.6364 20.1026 17.6364 20.2103ZM17.0545 15.6872C17.1636 15.3282 17.3091 14.9333 17.4545 14.4308C17.8545 13.2462 18.0364 12.7795 18.1091 12.5282C18.2182 12.1692 18.2182 12.1692 18.4727 11.5949L18.5091 11.5231C18.5818 11.3077 18.6909 11.0923 18.8 10.8769C18 11.2 17.4545 11.3795 16.5455 11.6667L16.0364 11.8462C15.6727 11.9538 15.3455 12.0615 15.0909 12.1692C14.9818 12.2051 14.8727 12.241 14.7636 12.2769C14.9818 12.5282 15.1636 12.8154 15.4182 13.1385C16.0727 14 16.5091 14.7179 17.0545 15.6872ZM23.4909 6.53333C23.7455 5.88718 23.6364 5.81539 23.6 5.77949C23.4909 5.70769 23.3091 5.6359 23.1636 5.74359C22.9455 5.95898 22.8727 6.10257 22.5091 6.78462C22.4 6.9641 22.2909 7.21539 22.1455 7.46667C22.1091 7.53846 22.0727 7.61026 22.0364 7.68205C22.6909 7.32308 23.3818 6.89231 23.4909 6.53333ZM10 10.7692C9.85455 10.8051 9.78182 10.841 9.78182 10.841C9.78182 10.8769 9.78182 10.9846 9.78182 11.0923C9.78182 11.1282 9.89091 11.2718 10.2545 11.3436C10.8 11.4513 11.1636 11.4513 11.4909 11.4513C11.6 11.4513 11.7091 11.4513 11.7818 11.4513C11.1636 10.9487 10.8727 10.8051 10.6909 10.7692C10.6182 10.7333 10.2909 10.7333 10 10.7692ZM5.45455 12.3846L5.45455 7.21538L12.6545 3.27388e-07L24.4 1.35421e-06C26.4 1.52905e-06 28 1.61539 28 3.62564L28 24.3744C28 26.3846 26.4 28 24.4 28L9.05455 28C7.23636 28 5.78182 26.6718 5.49091 24.9487C8.98182 24.9128 11.8182 22.1128 11.8182 18.6667C11.8182 15.1846 8.98182 12.3846 5.45455 12.3846ZM7.2 6.49743L10.8727 6.49744C11.4909 6.49744 11.9636 6.03077 11.9636 5.42051L11.9636 1.72308L7.2 6.49743ZM10.0364 12.7795C10.6909 12.8872 11.1273 12.8872 11.5273 12.8872C11.9273 12.8872 12.2545 12.8513 12.7636 12.7795C12.9091 12.7436 13.0909 12.7077 13.2 12.7077C13.5636 13.0667 13.8182 13.4256 14.2182 13.9641C14.9818 15.041 15.4545 15.7949 16.2182 17.1231C16.3273 17.3026 16.4364 17.5179 16.5455 17.6974C16.4727 18.0205 16.4 18.3795 16.3273 18.8103L16.2182 19.3128C15.9273 20.6769 15.8545 21.1436 16.0727 22.2564C16.3273 23.4769 17.1636 23.7641 17.6 23.7282C17.8182 23.7282 18.6909 23.5846 19.0545 22.3282C19.3091 21.4667 19.2727 20.8205 19.0545 19.9231C18.9091 19.2769 18.5818 18.4872 18.0364 17.5179C18.2182 16.7641 18.4364 16.0821 18.8364 14.9333C19.2364 13.7487 19.4182 13.2821 19.4909 12.9949C19.6 12.6718 19.6 12.6718 19.8182 12.1333L19.8545 12.0615C20.1091 11.3795 20.5455 10.5538 20.8364 10.0154C21.2727 9.8 21.7091 9.58462 22.3273 9.22564C23.6364 8.4718 24.5455 7.93333 24.8727 7.07179C25.0545 6.60513 25.4909 5.45641 24.5455 4.70256C24.2182 4.41539 23.7818 4.2718 23.3818 4.2718C22.9455 4.2718 22.5455 4.41538 22.2182 4.70256C21.8182 5.09744 21.6 5.45641 21.2364 6.13846C21.1273 6.31795 21.0182 6.53333 20.8727 6.82051C20.2909 7.93333 19.9273 8.68718 19.8545 8.79487C19.8545 8.83077 19.8182 8.86667 19.7818 8.90257C19.5273 9.01026 19.2364 9.11795 18.9091 9.26154C17.7091 9.7641 17.2 9.90769 16.1091 10.2667L15.6 10.4462C15.2 10.5897 14.9091 10.6615 14.6182 10.7692C14.2545 10.9128 13.9636 10.9846 13.6727 11.0923C13.4182 10.8769 13.1636 10.6256 12.8364 10.3744C12.1455 9.8 11.6727 9.51282 11.1636 9.36923C10.7273 9.26154 10.1091 9.29744 9.70909 9.40513C8.43636 9.7282 8.4 10.6615 8.36364 11.0564C8.32727 11.5949 8.65455 12.5282 10.0364 12.7795ZM-1.85192e-08 18.6667C2.41956e-07 15.6872 2.43636 13.282 5.45455 13.2821C8.47273 13.2821 10.9091 15.6872 10.9091 18.6667C10.9091 21.6462 8.47273 24.0513 5.45455 24.0513C2.43636 24.0513 -2.78994e-07 21.6462 -1.85192e-08 18.6667ZM3.23636 19.959L5.05455 21.7538L5.09091 21.7897C5.16364 21.8256 5.27273 21.8974 5.38182 21.8974C5.41818 21.8974 5.45454 21.8974 5.49091 21.8974C5.63636 21.8974 5.74545 21.8256 5.85454 21.7538L7.67273 19.959C7.78182 19.8513 7.81818 19.7077 7.81818 19.5641C7.81818 19.4205 7.78182 19.2769 7.67273 19.1692C7.45455 18.9538 7.12727 18.9538 6.90909 19.1692L6.03636 20.0308L6.03636 15.9385C6.03636 15.6513 5.78182 15.4 5.49091 15.4C5.2 15.4 4.94545 15.6513 4.94545 15.9385L4.94545 20.0667L4.07273 19.2051C3.85454 18.9897 3.52727 18.9897 3.30909 19.2051C3.05454 19.3846 3.05455 19.7436 3.23636 19.959Z" fill="#FFA401"/>
</svg>
